<svg viewBox="0 0 1420 202" version="1.1" xmlns:xlink="http://www.w3.org/1999/xlink" xmlns="http://www.w3.org/2000/svg" id="Layer_1">
  
  <defs>
    <style>
      .st0 {
        fill: url(#linear-gradient2);
      }

      .st1 {
        fill: url(#linear-gradient1);
      }

      .st2 {
        fill: url(#linear-gradient3);
      }

      .st3 {
        fill: url(#linear-gradient6);
      }

      .st4 {
        fill: url(#linear-gradient7);
      }

      .st5 {
        fill: url(#linear-gradient5);
      }

      .st6 {
        fill: url(#linear-gradient4);
      }

      .st7 {
        fill: url(#linear-gradient);
      }

      .st8 {
        fill: #ced2d6;
        fill-rule: evenodd;
      }

      .st9 {
        fill: #000814;
      }

      .st10 {
        fill: #1a6dff;
      }

      .st11 {
        stroke: #3b495c;
        stroke-opacity: .3;
      }

      .st11, .st12, .st13 {
        fill: none;
      }

      .st12, .st13 {
        stroke: #ced2d6;
        stroke-width: 2px;
      }

      .st13 {
        stroke-linecap: round;
      }
    </style>
    <linearGradient gradientUnits="userSpaceOnUse" gradientTransform="translate(0 203.3) scale(1 -1)" y2="61.3" x2="97" y1="150.2" x1="49.3" id="linear-gradient">
      <stop stop-color="#d0e5fe" offset="0"></stop>
      <stop stop-color="#fff" offset="1"></stop>
    </linearGradient>
    <linearGradient gradientUnits="userSpaceOnUse" gradientTransform="translate(0 203.3) scale(1 -1)" y2="61.3" x2="257" y1="150.2" x1="209.3" id="linear-gradient1">
      <stop stop-color="#d0e5fe" offset="0"></stop>
      <stop stop-color="#fff" offset="1"></stop>
    </linearGradient>
    <linearGradient gradientUnits="userSpaceOnUse" gradientTransform="translate(0 203.3) scale(1 -1)" y2="61.3" x2="417" y1="150.2" x1="369.3" id="linear-gradient2">
      <stop stop-color="#d0e5fe" offset="0"></stop>
      <stop stop-color="#fff" offset="1"></stop>
    </linearGradient>
    <linearGradient gradientUnits="userSpaceOnUse" gradientTransform="translate(0 203.3) scale(1 -1)" y2="57.6" x2="590.6" y1="154.5" x1="549.2" id="linear-gradient3">
      <stop stop-color="#d0e5fe" offset="0"></stop>
      <stop stop-color="#fff" offset="1"></stop>
    </linearGradient>
    <linearGradient gradientUnits="userSpaceOnUse" gradientTransform="translate(0 203.3) scale(1 -1)" y2="56" x2="793.4" y1="156.4" x1="755.7" id="linear-gradient4">
      <stop stop-color="#d0e5fe" offset="0"></stop>
      <stop stop-color="#fff" offset="1"></stop>
    </linearGradient>
    <linearGradient gradientUnits="userSpaceOnUse" gradientTransform="translate(0 203.3) scale(1 -1)" y2="61.3" x2="986" y1="150.2" x1="938.3" id="linear-gradient5">
      <stop stop-color="#d0e5fe" offset="0"></stop>
      <stop stop-color="#fff" offset="1"></stop>
    </linearGradient>
    <linearGradient gradientUnits="userSpaceOnUse" gradientTransform="translate(0 203.3) scale(1 -1)" y2="55.7" x2="1171.5" y1="156.7" x1="1134.7" id="linear-gradient6">
      <stop stop-color="#d0e5fe" offset="0"></stop>
      <stop stop-color="#fff" offset="1"></stop>
    </linearGradient>
    <linearGradient gradientUnits="userSpaceOnUse" gradientTransform="translate(0 203.3) scale(1 -1)" y2="61.3" x2="1367" y1="150.2" x1="1319.3" id="linear-gradient7">
      <stop stop-color="#d0e5fe" offset="0"></stop>
      <stop stop-color="#fff" offset="1"></stop>
    </linearGradient>
  </defs>
  <path d="M399.7,46.3c.4.4.4,1,0,1.4l-4,4c-.4.4-1,.4-1.4,0l-4-4c-.4-.4-.4-1,0-1.4.4-.4,1-.4,1.4,0l2.3,2.3v-11.6c0-.6.4-1,1-1s1,.4,1,1v11.6l2.3-2.3c.4-.4,1-.4,1.4,0Z" class="st8"></path>
  <path d="M780.7,46.3c.4.4.4,1,0,1.4l-4,4c-.4.4-1,.4-1.4,0l-4-4c-.4-.4-.4-1,0-1.4.4-.4,1-.4,1.4,0l2.3,2.3v-11.6c0-.6.4-1,1-1s1,.4,1,1v11.6l2.3-2.3c.4-.4,1-.4,1.4,0Z" class="st8"></path>
  <path d="M771.3,155.7c-.4-.4-.4-1,0-1.4l4-4c.4-.4,1-.4,1.4,0l4,4c.4.4.4,1,0,1.4-.4.4-1,.4-1.4,0l-2.3-2.3v11.6c0,.6-.4,1-1,1s-1-.4-1-1v-11.6l-2.3,2.3c-.4.4-1,.4-1.4,0Z" class="st8"></path>
  <line y2="37" x2="395" y1="37" x1="573" class="st12"></line>
  <line y2="37" x2="776" y1="37" x1="1155" class="st12"></line>
  <line y2="165" x2="776" y1="165" x1="235" class="st12"></line>
  <path d="M573,37v15" class="st13"></path>
  <path d="M1155,37v15" class="st13"></path>
  <path d="M235,165v-15" class="st13"></path>
  <rect ry="10" rx="10" height="88" width="130" y="57" x="10" class="st7"></rect>
  <rect ry="9.5" rx="9.5" height="87" width="129" y="57.5" x="10.5" class="st11"></rect>
  <path d="M59.8,96.1v13.9h-3.3v-13.9h3.3ZM68.6,94.8l3.2.3v14.8h-2.8l-.2-1.2c-.6.9-1.6,1.6-3,1.6-2.7,0-4-2.2-4-5.7s1.7-5.6,4.3-5.6,1.9.4,2.5,1v-5.2ZM66.7,108c.8,0,1.3-.4,1.8-1.2v-4.6c-.5-.6-1-.9-1.7-.9-1.1,0-1.9,1-1.9,3.3s.7,3.3,1.7,3.3ZM83.4,104.5c0,.3,0,.8,0,1.1h-6.6c.2,1.9,1.1,2.4,2.4,2.4s1.6-.3,2.5-.9l1.3,1.8c-1.1.8-2.4,1.5-4.1,1.5-3.5,0-5.3-2.3-5.3-5.6s1.7-5.7,5-5.7,4.9,2,4.9,5.4ZM80.3,103.7h0c0-1.6-.5-2.6-1.7-2.6s-1.7.7-1.8,2.6h3.5ZM93.5,106.9c0,.8.2,1.1.7,1.3l-.7,2.1c-1.2,0-2.1-.5-2.6-1.5-.8,1.2-1.9,1.6-3.2,1.6-2.1,0-3.5-1.4-3.5-3.3s1.8-3.6,5-3.6h1.1v-.5c0-1.3-.5-1.6-1.8-1.6s-1.7.2-2.8.6l-.7-2.1c1.3-.5,2.8-.8,4-.8,3.1,0,4.4,1.3,4.4,3.8v4.1ZM88.7,108.1c.7,0,1.3-.4,1.7-1v-1.9h-.8c-1.4,0-2.1.5-2.1,1.6s.4,1.3,1.2,1.3Z" class="st9"></path>
  <path d="M157.3,96.3c.4-.4,1-.4,1.4,0l4,4c.4.4.4,1,0,1.4l-4,4c-.4.4-1,.4-1.4,0-.4-.4-.4-1,0-1.4l2.3-2.3h-11.6c-.6,0-1-.4-1-1s.4-1,1-1h11.6l-2.3-2.3c-.4-.4-.4-1,0-1.4Z" class="st8"></path>
  <rect ry="10" rx="10" height="88" width="130" y="57" x="170" class="st1"></rect>
  <rect ry="9.5" rx="9.5" height="87" width="129" y="57.5" x="170.5" class="st11"></rect>
  <path d="M218,96.1l-.3,2.5h-3.4v11.3h-3.3v-11.3h-3.6v-2.5h10.6ZM220.8,93.8c1.1,0,1.9.8,1.9,1.8s-.8,1.8-1.9,1.8-1.9-.8-1.9-1.8.8-1.8,1.9-1.8ZM222.4,99.4v10.6h-3.2v-10.6h3.2ZM229.5,99c1.5,0,2.6.4,3.6,1.3l-1.4,1.9c-.7-.5-1.3-.8-2-.8-1.4,0-2.1.9-2.1,3.3s.8,3.1,2.1,3.1,1.3-.2,2-.7l1.4,2c-1,.8-2.1,1.3-3.6,1.3-3.3,0-5.3-2.2-5.3-5.6s2-5.7,5.2-5.7ZM237.6,94.8v15.2h-3.2v-14.8l3.2-.3ZM244.1,99.4l-3.2,4.7,3.5,6h-3.6l-3.2-5.8,3.2-4.8h3.2ZM254.5,104.5c0,.3,0,.8,0,1.1h-6.6c.2,1.9,1.1,2.4,2.4,2.4s1.6-.3,2.5-.9l1.3,1.8c-1.1.8-2.4,1.5-4.1,1.5-3.5,0-5.3-2.3-5.3-5.6s1.7-5.7,5-5.7,4.9,2,4.9,5.4ZM251.4,103.7h0c0-1.6-.5-2.6-1.7-2.6s-1.7.7-1.8,2.6h3.5ZM261.9,107.5l1.1,2c-.8.6-1.9.8-2.9.8-2.3,0-3.5-1.3-3.5-3.8v-4.9h-1.5v-2.2h1.5v-2.3l3.2-.4v2.7h2.4l-.3,2.2h-2.1v4.9c0,1,.3,1.4,1,1.4s.7,0,1.1-.3Z" class="st9"></path>
  <path d="M317.3,96.3c.4-.4,1-.4,1.4,0l4,4c.4.4.4,1,0,1.4l-4,4c-.4.4-1,.4-1.4,0-.4-.4-.4-1,0-1.4l2.3-2.3h-11.6c-.6,0-1-.4-1-1s.4-1,1-1h11.6l-2.3-2.3c-.4-.4-.4-1,0-1.4Z" class="st8"></path>
  <rect ry="10" rx="10" height="88" width="130" y="57" x="330" class="st0"></rect>
  <rect ry="9.5" rx="9.5" height="87" width="129" y="57.5" x="330.5" class="st11"></rect>
  <path d="M369.3,96.1c3.7,0,7.2,1.1,7.2,6.9s-3.4,7-6.9,7h-4.2v-13.9h3.9ZM369.7,98.5h-1v9.1h1.1c2,0,3.3-.9,3.3-4.6s-1.4-4.5-3.3-4.5ZM387.6,104.5c0,.3,0,.8,0,1.1h-6.6c.2,1.9,1.1,2.4,2.4,2.4s1.6-.3,2.5-.9l1.3,1.8c-1.1.8-2.4,1.5-4.1,1.5-3.5,0-5.3-2.3-5.3-5.6s1.7-5.7,5-5.7,4.9,2,4.9,5.4ZM384.5,103.7h0c0-1.6-.5-2.6-1.7-2.6s-1.7.7-1.8,2.6h3.5ZM393.2,99c1.5,0,2.9.5,3.9,1.3l-1.2,1.8c-.8-.5-1.7-.8-2.6-.8s-1.3.3-1.3.8.3.8,2.2,1.4c2.1.6,3.3,1.5,3.3,3.4s-2.1,3.5-4.7,3.5-3.4-.6-4.4-1.6l1.5-1.7c.8.6,1.8,1,2.8,1s1.5-.4,1.5-1-.3-.9-2.2-1.5c-2.1-.6-3.1-1.7-3.1-3.3s1.7-3.2,4.3-3.2ZM400.6,93.8c1.1,0,1.9.8,1.9,1.8s-.8,1.8-1.9,1.8-1.9-.8-1.9-1.8.8-1.8,1.9-1.8ZM402.2,99.4v10.6h-3.2v-10.6h3.2ZM413.7,97.7l.7,2.3c-.7.3-1.7.4-3.1.4,1.3.6,2,1.4,2,2.7,0,2.1-1.7,3.6-4.5,3.6s-.8,0-1.2-.1c-.2.1-.3.4-.3.6s.1.6,1.2.6h1.6c2.5,0,4.1,1.3,4.1,3.1s-1.9,3.5-5.6,3.5-5.1-1.3-5.1-3.4h2.8c0,.9.4,1.3,2.3,1.3s2.3-.5,2.3-1.2-.5-1-1.5-1h-1.5c-2.3,0-3.3-1-3.3-2.1s.5-1.6,1.3-2c-1.4-.7-1.9-1.7-1.9-3,0-2.4,1.9-3.9,4.7-3.9,2.4,0,3.7-.6,5-1.4ZM408.8,101.1c-1,0-1.6.7-1.6,1.8s.6,1.8,1.6,1.8,1.6-.6,1.6-1.8-.5-1.7-1.6-1.7ZM421.9,99c1.8,0,2.9,1.2,2.9,3.2v7.8h-3.2v-7.2c0-1.1-.4-1.4-1-1.4s-1.3.5-1.8,1.4v7.3h-3.2v-10.6h2.7l.2,1.3c.9-1.1,1.9-1.6,3.2-1.6Z" class="st9"></path>
  <path d="M477.3,96.3c.4-.4,1-.4,1.4,0l4,4c.4.4.4,1,0,1.4l-4,4c-.4.4-1,.4-1.4,0-.4-.4-.4-1,0-1.4l2.3-2.3h-11.6c-.6,0-1-.4-1-1s.4-1,1-1h11.6l-2.3-2.3c-.4-.4-.4-1,0-1.4Z" class="st8"></path>
  <rect ry="10" rx="10" height="88" width="163" y="57" x="490" class="st2"></rect>
  <rect ry="9.5" rx="9.5" height="87" width="162" y="57.5" x="490.5" class="st11"></rect>
  <path d="M534.2,82.1l-4.4,8.7v5.2h-3.3v-5.2l-4.4-8.7h3.6l2.6,6.1,2.6-6.1h3.5ZM538.6,85c1.6,0,2.9.5,3.8,1.5.9,1,1.4,2.4,1.4,4.2s-.2,2.1-.6,3c-.4.8-1,1.5-1.8,2-.8.5-1.7.7-2.8.7-1.6,0-2.9-.5-3.8-1.5-.9-1-1.4-2.4-1.4-4.2s.2-2.1.6-3c.4-.9,1-1.5,1.8-2,.8-.5,1.7-.7,2.8-.7ZM538.6,87.4c-.6,0-1.1.3-1.4.8-.3.5-.5,1.4-.5,2.5s.2,2,.5,2.5c.3.5.8.8,1.5.8s1.1-.3,1.4-.8c.3-.5.5-1.4.5-2.5s-.2-2-.5-2.5c-.3-.5-.8-.8-1.4-.8ZM554.6,96h-2.7v-1.3c-.9,1.1-2,1.7-3.4,1.7s-1.7-.3-2.2-.9c-.5-.6-.7-1.4-.7-2.5v-7.6h3.2v7.2c0,.5,0,.9.2,1.1.2.2.4.3.8.3.7,0,1.2-.4,1.7-1.2v-7.4h3.2v10.6ZM567.6,85.1c.4,0,.7,0,1.1.1l-.5,3.1c-.4,0-.7-.1-1-.1-.6,0-1.1.2-1.4.7-.3.4-.6,1.1-.8,1.9v5.3h-3.2v-10.6h2.8l.3,2.1c.2-.7.6-1.3,1.1-1.7.5-.4,1-.6,1.7-.6ZM578.5,90.5c0,.4,0,.8,0,1.1h-6.6c.1.9.4,1.5.8,1.9s1,.5,1.7.5.8,0,1.2-.2c.4-.2.8-.4,1.3-.7l1.3,1.8c-1.2,1-2.6,1.5-4.1,1.5s-3-.5-4-1.5c-.9-1-1.4-2.4-1.4-4.1s.2-2,.6-2.9c.4-.9,1-1.5,1.7-2,.7-.5,1.6-.8,2.7-.8,1.5,0,2.7.5,3.6,1.4.9,1,1.3,2.3,1.3,4ZM575.4,89.6c0-1.6-.6-2.4-1.7-2.4s-1,.2-1.3.6c-.3.4-.5,1.1-.5,2h3.5ZM589.3,85.4l-3.3,10.6h-3.7l-3.4-10.6h3.4l1.9,8.2,2-8.2h3.2ZM593.6,85.4v10.6h-3.2v-10.6h3.2ZM592,79.8c.5,0,1,.2,1.3.5.4.3.5.8.5,1.3s-.2,1-.5,1.3c-.3.3-.8.5-1.3.5s-1-.2-1.3-.5c-.3-.3-.5-.8-.5-1.3s.2-.9.5-1.3c.3-.3.8-.5,1.3-.5ZM605.3,90.5c0,.4,0,.8,0,1.1h-6.6c.1.9.4,1.5.8,1.9.4.4,1,.5,1.7.5s.8,0,1.2-.2c.4-.2.8-.4,1.3-.7l1.3,1.8c-1.2,1-2.6,1.5-4.1,1.5s-3-.5-4-1.5c-.9-1-1.4-2.4-1.4-4.1s.2-2,.6-2.9c.4-.9,1-1.5,1.7-2,.7-.5,1.6-.8,2.7-.8,1.5,0,2.7.5,3.6,1.4.9,1,1.3,2.3,1.3,4ZM602.2,89.6c0-1.6-.6-2.4-1.7-2.4s-1,.2-1.3.6c-.3.4-.5,1.1-.5,2h3.5ZM620.7,85.4l-2.2,10.6h-3.8l-1.4-7.8-1.4,7.8h-3.7l-2.3-10.6h3.2l1.1,8.3,1.7-8.3h3.1l1.5,8.3,1.3-8.3h3ZM531.4,119.5c-.4.3-.8.5-1.4.6-.5.1-1,.2-1.5.2-2.3,0-3.5-1.3-3.5-3.8v-4.9h-1.5v-2.2h1.5v-2.3l3.2-.4v2.7h2.4l-.3,2.2h-2.1v4.9c0,.5,0,.8.2,1.1.2.2.4.3.8.3s.7-.1,1.1-.3l1.1,2ZM538.7,109c.9,0,1.6.3,2.2.8.5.6.8,1.3.8,2.4v7.8h-3.2v-7.2c0-.5,0-.9-.3-1.1-.2-.2-.4-.3-.7-.3-.6,0-1.3.5-1.8,1.4v7.3h-3.2v-14.8l3.2-.3v5.7c.4-.5.9-.9,1.4-1.1.5-.3,1-.4,1.7-.4ZM553.3,114.5c0,.4,0,.8,0,1.1h-6.6c.1.9.4,1.5.8,1.9s1,.5,1.7.5.8,0,1.2-.2c.4-.2.8-.4,1.3-.7l1.3,1.8c-1.2,1-2.6,1.5-4.1,1.5s-3-.5-4-1.5c-.9-1-1.4-2.4-1.4-4.1s.2-2,.6-2.9c.4-.9,1-1.5,1.7-2,.7-.5,1.6-.8,2.7-.8,1.5,0,2.7.5,3.6,1.4.9,1,1.3,2.3,1.3,4ZM550.2,113.6c0-1.6-.6-2.4-1.7-2.4s-1,.2-1.3.6c-.3.4-.5,1.1-.5,2h3.5ZM569.3,105.2v14.8h-2.8l-.2-1.2c-.7,1.1-1.8,1.6-3,1.6s-2.3-.5-3-1.5c-.7-1-1-2.4-1-4.2s.2-2,.5-2.9c.4-.9.9-1.5,1.5-2,.7-.5,1.4-.7,2.3-.7s1.9.3,2.5,1v-5.2l3.2.3ZM564.3,118c.7,0,1.3-.4,1.8-1.2v-4.6c-.3-.3-.5-.5-.8-.7-.3-.1-.5-.2-.9-.2-.6,0-1.1.3-1.4.8-.3.5-.5,1.4-.5,2.5s.1,2.1.4,2.6c.3.5.7.7,1.3.7ZM581.1,114.5c0,.4,0,.8,0,1.1h-6.6c.1.9.4,1.5.8,1.9.4.4,1,.5,1.7.5s.8,0,1.2-.2c.4-.2.8-.4,1.3-.7l1.3,1.8c-1.2,1-2.6,1.5-4.1,1.5s-3-.5-4-1.5-1.4-2.4-1.4-4.1.2-2,.6-2.9c.4-.9,1-1.5,1.7-2,.7-.5,1.6-.8,2.7-.8,1.5,0,2.7.5,3.6,1.4.9,1,1.3,2.3,1.3,4ZM578,113.6c0-1.6-.6-2.4-1.7-2.4s-1,.2-1.3.6c-.3.4-.5,1.1-.5,2h3.5ZM586.6,109c.8,0,1.5.1,2.1.3.7.2,1.3.5,1.8,1l-1.2,1.8c-.9-.5-1.7-.8-2.6-.8s-.7,0-1,.2c-.2.1-.3.3-.3.6s0,.4.1.5c.1.1.3.2.6.4.3.1.8.3,1.4.5,1.1.3,1.9.7,2.5,1.3.5.5.8,1.2.8,2.1s-.2,1.3-.6,1.9c-.4.5-1,.9-1.7,1.2-.7.3-1.5.4-2.4.4s-1.7-.1-2.5-.4c-.8-.3-1.4-.7-1.9-1.2l1.5-1.7c.9.7,1.8,1,2.8,1s.9,0,1.1-.3c.3-.2.4-.4.4-.7s0-.5-.2-.6c-.1-.1-.3-.3-.6-.4-.3-.1-.8-.3-1.5-.5-1.1-.3-1.8-.7-2.4-1.3s-.8-1.2-.8-2,.2-1.2.5-1.6c.4-.5.9-.9,1.5-1.2.7-.3,1.4-.4,2.3-.4ZM595.7,109.4v10.6h-3.2v-10.6h3.2ZM594.1,103.8c.5,0,1,.2,1.3.5.4.3.5.8.5,1.3s-.2,1-.5,1.3c-.3.3-.8.5-1.3.5s-1-.2-1.3-.5c-.3-.3-.5-.8-.5-1.3s.2-.9.5-1.3c.3-.3.8-.5,1.3-.5ZM607.9,110c-.7.3-1.7.4-3.1.4.7.3,1.2.7,1.5,1.1s.5,1,.5,1.7-.2,1.3-.5,1.8c-.4.5-.9,1-1.6,1.3-.7.3-1.5.5-2.4.5s-.8,0-1.2-.1c-.1,0-.2.1-.3.3,0,.1,0,.2,0,.3,0,.2,0,.4.2.5.2.1.5.2.9.2h1.6c.8,0,1.5.1,2.1.4.6.3,1.1.6,1.4,1.1.3.5.5,1,.5,1.6,0,1.1-.5,2-1.4,2.6-.9.6-2.3.9-4.1.9s-2.3-.1-3.1-.4c-.7-.3-1.3-.6-1.6-1.1-.3-.5-.4-1.1-.4-1.9h2.8c0,.3,0,.6.2.8.1.2.4.3.7.4.3,0,.8.1,1.4.1s1.5-.1,1.8-.3c.3-.2.5-.5.5-.9s-.1-.6-.4-.8c-.3-.2-.6-.3-1.1-.3h-1.5c-1.1,0-1.9-.2-2.5-.6-.5-.4-.8-.9-.8-1.5s.1-.8.3-1.1c.2-.4.5-.7.9-.9-.7-.4-1.2-.8-1.5-1.3-.3-.5-.4-1.1-.4-1.8,0-1.2.4-2.1,1.3-2.8.9-.7,2-1.1,3.4-1.1,1.1,0,2,0,2.7-.3.7-.2,1.5-.6,2.3-1.1l.7,2.3ZM602.3,111.1c-.5,0-.9.2-1.2.5-.3.3-.4.7-.4,1.3s.1,1,.4,1.3c.3.3.7.5,1.2.5s.9-.2,1.2-.5c.3-.3.4-.8.4-1.4,0-1.1-.5-1.7-1.6-1.7ZM615.4,109c.9,0,1.6.3,2.2.8.5.6.8,1.3.8,2.4v7.8h-3.2v-7.2c0-.5,0-.9-.3-1.1-.2-.2-.4-.3-.7-.3-.6,0-1.3.5-1.8,1.4v7.3h-3.2v-10.6h2.8l.2,1.3c.5-.5.9-.9,1.5-1.2.5-.3,1.1-.4,1.8-.4Z" class="st9"></path>
  <path d="M670.3,96.3c.4-.4,1-.4,1.4,0l4,4c.4.4.4,1,0,1.4l-4,4c-.4.4-1,.4-1.4,0-.4-.4-.4-1,0-1.4l2.3-2.3h-11.6c-.6,0-1-.4-1-1s.4-1,1-1h11.6l-2.3-2.3c-.4-.4-.4-1,0-1.4Z" class="st8"></path>
  <rect ry="10" rx="10" height="88" width="186" y="57" x="683" class="st6"></rect>
  <rect ry="9.5" rx="9.5" height="87" width="185" y="57.5" x="683.5" class="st11"></rect>
  <path d="M720.3,96.1c2.2,0,3.9.5,5.2,1.5,1.3,1,2,2.8,2,5.4s-.6,4.4-1.9,5.4c-1.3,1-2.9,1.6-5,1.6h-4.2v-13.9h3.9ZM719.7,98.5v9.1h1.1c1.1,0,1.9-.3,2.5-1,.6-.7.8-1.9.8-3.6s-.1-2.1-.4-2.8c-.3-.7-.7-1.1-1.1-1.3-.5-.3-1.1-.4-1.8-.4h-1ZM738.7,104.5c0,.4,0,.8,0,1.1h-6.6c.1.9.4,1.5.8,1.9.4.4,1,.5,1.7.5s.8,0,1.2-.2c.4-.2.8-.4,1.3-.7l1.3,1.8c-1.2,1-2.6,1.5-4.1,1.5s-3-.5-4-1.5-1.4-2.4-1.4-4.1.2-2,.6-2.9c.4-.9,1-1.5,1.7-2,.7-.5,1.6-.8,2.7-.8,1.5,0,2.7.5,3.6,1.4.9,1,1.3,2.3,1.3,4ZM735.6,103.6c0-1.6-.6-2.4-1.7-2.4s-1,.2-1.3.6c-.3.4-.5,1.1-.5,2h3.5ZM749.4,99.4l-3.3,10.6h-3.7l-3.4-10.6h3.4l1.9,8.2,2-8.2h3.2ZM759.7,104.5c0,.4,0,.8,0,1.1h-6.6c.1.9.4,1.5.8,1.9.4.4,1,.5,1.7.5s.8,0,1.2-.2c.4-.2.8-.4,1.3-.7l1.3,1.8c-1.2,1-2.6,1.5-4.1,1.5s-3-.5-4-1.5-1.4-2.4-1.4-4.1.2-2,.6-2.9c.4-.9,1-1.5,1.7-2,.8-.5,1.6-.8,2.7-.8,1.5,0,2.7.5,3.6,1.4.9,1,1.3,2.3,1.3,4ZM756.6,103.6c0-1.6-.6-2.4-1.7-2.4s-1,.2-1.3.6c-.3.4-.5,1.1-.5,2h3.5ZM764.3,110.3c-.9,0-1.6-.3-2.2-.8-.5-.5-.8-1.3-.8-2.3v-12.1l3.2-.3v12.4c0,.4.2.7.5.7s.4,0,.5,0l.6,2.2c-.6.2-1.2.4-1.9.4ZM771.9,99c1.6,0,2.9.5,3.8,1.5.9,1,1.4,2.4,1.4,4.2s-.2,2.1-.6,3c-.4.8-1,1.5-1.8,2-.8.5-1.7.7-2.8.7-1.6,0-2.9-.5-3.8-1.5-.9-1-1.4-2.4-1.4-4.2s.2-2.1.6-3c.4-.9,1-1.5,1.8-2,.8-.5,1.7-.7,2.8-.7ZM771.9,101.4c-.6,0-1.1.3-1.4.8-.3.5-.5,1.4-.5,2.5s.1,2,.5,2.5c.3.5.8.8,1.5.8s1.1-.3,1.4-.8c.3-.5.5-1.4.5-2.5s-.2-2-.5-2.5c-.3-.5-.8-.8-1.4-.8ZM785,99c1.3,0,2.3.5,3,1.5.7,1,1,2.4,1,4.1s-.2,2.1-.5,2.9c-.3.9-.8,1.5-1.5,2-.6.5-1.4.7-2.2.7s-1.9-.4-2.6-1.1v4.9l-3.2.3v-15.1h2.8l.2,1.2c.4-.5.9-.9,1.4-1.1.5-.3,1.1-.4,1.6-.4ZM783.7,108c1.3,0,1.9-1.1,1.9-3.3s-.1-2.1-.4-2.6c-.3-.5-.7-.7-1.3-.7s-.7.1-1,.3c-.3.2-.6.5-.8.9v4.5c.4.6,1,.9,1.6.9ZM802.6,99c.8,0,1.5.3,2,.9.5.6.8,1.3.8,2.3v7.8h-3.2v-7.2c0-.9-.3-1.4-.9-1.4s-.6.1-.9.3c-.2.2-.5.6-.7,1v7.3h-3.2v-7.2c0-.9-.3-1.4-.9-1.4s-.6.1-.9.4c-.2.2-.5.6-.7,1v7.3h-3.2v-10.6h2.8l.2,1.2c.4-.5.9-.9,1.4-1.2.5-.3,1.1-.4,1.7-.4s1.1.1,1.5.4c.4.3.8.7,1,1.2.4-.6.9-1,1.4-1.3.5-.3,1.1-.4,1.8-.4ZM817.1,104.5c0,.4,0,.8,0,1.1h-6.6c0,.9.4,1.5.8,1.9.4.4.9.5,1.7.5s.8,0,1.2-.2c.4-.2.8-.4,1.3-.7l1.3,1.8c-1.2,1-2.6,1.5-4.1,1.5s-3-.5-4-1.5c-.9-1-1.4-2.4-1.4-4.1s.2-2,.6-2.9c.4-.9.9-1.5,1.7-2,.7-.5,1.6-.8,2.7-.8,1.5,0,2.7.5,3.6,1.4.9,1,1.3,2.3,1.3,4ZM813.9,103.6c0-1.6-.6-2.4-1.7-2.4s-1,.2-1.3.6c-.3.4-.5,1.1-.5,2h3.5ZM825,99c.9,0,1.6.3,2.2.8.5.6.8,1.3.8,2.4v7.8h-3.2v-7.2c0-.5,0-.9-.3-1.1-.2-.2-.4-.3-.7-.3-.6,0-1.2.5-1.8,1.4v7.3h-3.2v-10.6h2.8l.2,1.3c.5-.5.9-.9,1.5-1.2.5-.3,1.1-.4,1.8-.4ZM837,109.5c-.4.3-.8.5-1.4.6-.5.1-1,.2-1.5.2-2.3,0-3.5-1.3-3.5-3.8v-4.9h-1.5v-2.2h1.5v-2.3l3.2-.4v2.7h2.4l-.3,2.2h-2.1v4.9c0,.5,0,.8.2,1.1.2.2.4.3.8.3s.7-.1,1.1-.3l1.1,2Z" class="st9"></path>
  <path d="M886.3,96.3c.4-.4,1-.4,1.4,0l4,4c.4.4.4,1,0,1.4l-4,4c-.4.4-1,.4-1.4,0-.4-.4-.4-1,0-1.4l2.3-2.3h-11.6c-.6,0-1-.4-1-1s.4-1,1-1h11.6l-2.3-2.3c-.4-.4-.4-1,0-1.4Z" class="st8"></path>
  <rect ry="10" rx="10" height="88" width="130" y="57" x="899" class="st5"></rect>
  <rect ry="9.5" rx="9.5" height="87" width="129" y="57.5" x="899.5" class="st11"></rect>
  <path d="M961.2,109.1c1.8,0,3,.5,4.1,1.3l-2,2.6c-1.3-1.4-2.7-2.7-5.3-2.7-3.7,0-6-2.6-6-7.2s2.3-7.3,6.2-7.3,6.3,2.6,6.3,7.3-1.6,5.1-3.3,6ZM955.4,103.1c0,3.5,1,4.9,2.8,4.9s2.8-1.4,2.8-4.9-1-4.9-2.8-4.9-2.8,1.4-2.8,4.9ZM973.5,110l-.7-3h-4.1l-.7,3h-3.4l4.2-13.9h4l4.2,13.9h-3.5ZM969.3,104.6h2.9l-1.5-6.1-1.5,6.1Z" class="st9"></path>
  <path d="M1046.3,96.3c.4-.4,1-.4,1.4,0l4,4c.4.4.4,1,0,1.4l-4,4c-.4.4-1,.4-1.4,0-.4-.4-.4-1,0-1.4l2.3-2.3h-11.6c-.6,0-1-.4-1-1s.4-1,1-1h11.6l-2.3-2.3c-.4-.4-.4-1,0-1.4Z" class="st8"></path>
  <rect ry="10" rx="10" height="88" width="191" y="57" x="1059" class="st3"></rect>
  <rect ry="9.5" rx="9.5" height="87" width="190" y="57.5" x="1059.5" class="st11"></rect>
  <path d="M1103.5,82.1l-4.4,8.7v5.2h-3.3v-5.2l-4.4-8.7h3.6l2.6,6.1,2.6-6.1h3.5ZM1107.9,85c3.2,0,5.2,2.1,5.2,5.7s-2,5.6-5.2,5.6-5.2-2.1-5.2-5.7,2-5.6,5.2-5.6ZM1107.9,87.4c-1.3,0-1.9,1-1.9,3.3s.6,3.3,1.9,3.3,1.9-1,1.9-3.3-.6-3.3-1.9-3.3ZM1123.8,85.4v10.6h-2.7v-1.3c-.9,1.1-1.9,1.7-3.4,1.7s-3-1.3-3-3.3v-7.6h3.2v7.2c0,1.1.4,1.4,1,1.4s1.3-.4,1.7-1.2v-7.4h3.2ZM1135.7,85c1.5,0,2.6.4,3.6,1.3l-1.4,1.9c-.7-.5-1.3-.8-2-.8-1.4,0-2.1.9-2.1,3.3s.8,3.1,2.1,3.1,1.3-.2,2-.7l1.4,2c-1,.8-2.1,1.3-3.6,1.3-3.3,0-5.3-2.2-5.3-5.6s2-5.7,5.2-5.7ZM1146.8,85c1.8,0,2.9,1.2,2.9,3.2v7.8h-3.2v-7.2c0-1.1-.4-1.4-1-1.4s-1.3.5-1.8,1.4v7.3h-3.2v-14.8l3.2-.3v5.7c.9-1,1.8-1.5,3.1-1.5ZM1161.4,90.5c0,.3,0,.8,0,1.1h-6.6c.2,1.9,1.1,2.4,2.4,2.4s1.6-.3,2.5-.9l1.3,1.8c-1.1.8-2.4,1.5-4.1,1.5-3.5,0-5.3-2.3-5.3-5.6s1.7-5.7,5-5.7,4.9,2,4.9,5.4ZM1158.3,89.7h0c0-1.6-.5-2.6-1.7-2.6s-1.7.7-1.8,2.6h3.5ZM1167.8,85c1.5,0,2.6.4,3.6,1.3l-1.4,1.9c-.7-.5-1.3-.8-2-.8-1.4,0-2.1.9-2.1,3.3s.8,3.1,2.1,3.1,1.3-.2,2-.7l1.4,2c-1,.8-2.1,1.3-3.6,1.3-3.3,0-5.3-2.2-5.3-5.6s2-5.7,5.2-5.7ZM1175.9,80.8v15.2h-3.2v-14.8l3.2-.3ZM1182.4,85.4l-3.2,4.7,3.5,6h-3.6l-3.2-5.8,3.2-4.8h3.2ZM1194.1,93.5l1.1,2c-.8.6-1.9.8-2.9.8-2.3,0-3.5-1.3-3.5-3.8v-4.9h-1.5v-2.2h1.5v-2.3l3.2-.4v2.7h2.4l-.3,2.2h-2.1v4.9c0,1,.3,1.4,1,1.4s.7,0,1.1-.3ZM1202.4,85c1.8,0,2.9,1.2,2.9,3.2v7.8h-3.2v-7.2c0-1.1-.4-1.4-1-1.4s-1.3.5-1.8,1.4v7.3h-3.2v-14.8l3.2-.3v5.7c.9-1,1.8-1.5,3.1-1.5ZM1216.9,90.5c0,.3,0,.8,0,1.1h-6.6c.2,1.9,1.1,2.4,2.4,2.4s1.6-.3,2.5-.9l1.3,1.8c-1.1.8-2.4,1.5-4.1,1.5-3.5,0-5.3-2.3-5.3-5.6s1.7-5.7,5-5.7,4.9,2,4.9,5.4ZM1213.8,89.7h0c0-1.6-.5-2.6-1.7-2.6s-1.7.7-1.8,2.6h3.5ZM1106.2,109c2.7,0,4,2.2,4,5.6s-1.6,5.7-4.2,5.7-1.9-.4-2.6-1.1v4.9l-3.2.3v-15.1h2.8l.2,1.2c.9-1.1,2-1.5,3.1-1.5ZM1104.9,118c1.2,0,1.9-.9,1.9-3.3s-.6-3.3-1.7-3.3-1.4.5-1.8,1.2v4.5c.4.6.9.9,1.6.9ZM1117.8,109.1c.4,0,.7,0,1.1.1l-.5,3.1c-.3,0-.6-.1-1-.1-1.3,0-1.8.9-2.2,2.5v5.3h-3.2v-10.6h2.7l.3,2.1c.5-1.5,1.5-2.4,2.7-2.4ZM1128.9,114.5c0,.3,0,.8,0,1.1h-6.6c.2,1.9,1.1,2.4,2.4,2.4s1.6-.3,2.5-.9l1.3,1.8c-1.1.8-2.4,1.5-4.1,1.5-3.5,0-5.3-2.3-5.3-5.6s1.7-5.7,5-5.7,4.9,2,4.9,5.4ZM1125.8,113.7h0c0-1.6-.5-2.6-1.7-2.6s-1.7.7-1.8,2.6h3.5ZM1139.7,109.4l-3.3,10.6h-3.7l-3.4-10.6h3.4l1.9,8.2,2-8.2h3.2ZM1142.3,103.8c1.1,0,1.9.8,1.9,1.8s-.8,1.8-1.9,1.8-1.9-.8-1.9-1.8.8-1.8,1.9-1.8ZM1143.9,109.4v10.6h-3.2v-10.6h3.2ZM1155.7,114.5c0,.3,0,.8,0,1.1h-6.6c.2,1.9,1.1,2.4,2.4,2.4s1.6-.3,2.5-.9l1.3,1.8c-1.1.8-2.4,1.5-4.1,1.5-3.5,0-5.3-2.3-5.3-5.6s1.7-5.7,5-5.7,4.9,2,4.9,5.4ZM1152.6,113.7h0c0-1.6-.5-2.6-1.7-2.6s-1.7.7-1.8,2.6h3.5ZM1171.1,109.4l-2.2,10.6h-3.8l-1.4-7.8-1.4,7.8h-3.7l-2.3-10.6h3.2l1.1,8.3,1.7-8.3h3.1l1.5,8.3,1.3-8.3h3ZM1180,120.3c-1.8,0-2.9-1.1-2.9-3v-12.1l3.2-.3v12.4c0,.4.2.7.6.7s.4,0,.5,0l.6,2.2c-.5.2-1.1.4-1.9.4ZM1184.7,103.8c1.1,0,1.9.8,1.9,1.8s-.8,1.8-1.9,1.8-1.9-.8-1.9-1.8.8-1.8,1.9-1.8ZM1186.3,109.4v10.6h-3.2v-10.6h3.2ZM1195,109c1.8,0,2.9,1.2,2.9,3.2v7.8h-3.2v-7.2c0-1.1-.4-1.4-1-1.4s-1.3.5-1.8,1.4v7.3h-3.2v-10.6h2.7l.2,1.3c.9-1.1,1.9-1.6,3.2-1.6ZM1203.4,104.8v15.2h-3.2v-14.8l3.2-.3ZM1210,109.4l-3.2,4.7,3.5,6h-3.6l-3.2-5.8,3.2-4.8h3.2Z" class="st9"></path>
  <path d="M1267.3,96.3c.4-.4,1-.4,1.4,0l4,4c.4.4.4,1,0,1.4l-4,4c-.4.4-1,.4-1.4,0-.4-.4-.4-1,0-1.4l2.3-2.3h-11.6c-.6,0-1-.4-1-1s.4-1,1-1h11.6l-2.3-2.3c-.4-.4-.4-1,0-1.4Z" class="st8"></path>
  <rect ry="10" rx="10" height="88" width="130" y="57" x="1280" class="st4"></rect>
  <rect ry="9.5" rx="9.5" height="87" width="129" y="57.5" x="1280.5" class="st11"></rect>
  <path d="M1331.1,96.1v11.3h5.4l-.3,2.6h-8.3v-13.9h3.3ZM1339.5,93.8c1.1,0,1.9.8,1.9,1.8s-.8,1.8-1.9,1.8-1.9-.8-1.9-1.8.8-1.8,1.9-1.8ZM1341.1,99.4v10.6h-3.2v-10.6h3.2ZM1352.7,99.4l-3.3,10.6h-3.7l-3.4-10.6h3.4l1.9,8.2,2-8.2h3.2ZM1362.9,104.5c0,.3,0,.8,0,1.1h-6.6c.2,1.9,1.1,2.4,2.4,2.4s1.6-.3,2.5-.9l1.3,1.8c-1.1.8-2.4,1.5-4.1,1.5-3.5,0-5.3-2.3-5.3-5.6s1.7-5.7,5-5.7,4.9,2,4.9,5.4ZM1359.8,103.7h0c0-1.6-.5-2.6-1.7-2.6s-1.7.7-1.8,2.6h3.5Z" class="st9"></path>
  <path d="M900.1,20v-10h1.6v10h-1.6ZM907.7,13.7h-1.8v6.3h-1.6v-6.3h-1.2v-.8l1.2-.5v-.5c0-.9.2-1.6.6-2,.4-.4,1.1-.6,1.9-.6s1.1,0,1.7.3l-.4,1.2c-.4-.1-.8-.2-1.1-.2s-.6.1-.8.3c-.2.2-.2.6-.2,1v.5h1.8v1.2ZM910.9,12.4h1.8l1.5,4.3c.2.6.4,1.2.5,1.7h0c0-.3.1-.6.2-.9.1-.4.7-2.1,1.7-5.1h1.7l-3.2,8.6c-.6,1.6-1.6,2.4-2.9,2.4s-.7,0-1-.1v-1.3c.2,0,.5,0,.8,0,.8,0,1.3-.4,1.6-1.3l.3-.7-3-7.6ZM925.9,16.2c0,1.2-.3,2.2-.9,2.9-.6.7-1.5,1-2.7,1s-1.3-.2-1.9-.5-1-.8-1.2-1.4-.4-1.3-.4-2.1c0-1.2.3-2.2.9-2.9.6-.7,1.5-1,2.7-1s2,.4,2.6,1.1c.6.7,1,1.6,1,2.8ZM920.4,16.2c0,1.7.6,2.6,1.9,2.6s1.9-.9,1.9-2.6-.6-2.6-1.9-2.6-1.2.2-1.5.7c-.3.4-.5,1.1-.5,1.9ZM932.8,20l-.2-1h0c-.2.4-.6.6-1,.8-.4.2-.9.3-1.4.3-.9,0-1.6-.2-2.1-.7-.4-.5-.7-1.1-.7-2.1v-4.9h1.6v4.7c0,.6.1,1,.4,1.3.2.3.6.4,1.1.4s1.2-.2,1.5-.6c.3-.4.5-1.1.5-2v-3.8h1.6v7.6h-1.3ZM945.6,20l-1-3.5c-.1-.4-.3-1.2-.7-2.6h0c-.3,1.2-.5,2.1-.6,2.6l-1,3.5h-1.8l-2.1-7.6h1.6l1,3.7c.2.9.4,1.7.5,2.4h0c0-.3.1-.7.2-1.1,0-.4.2-.8.2-1l1.2-4h1.8l1.1,4c0,.2.2.6.2,1,.1.5.2.8.2,1.1h0c0-.6.2-1.3.5-2.4l1-3.7h1.6l-2.1,7.6h-1.8ZM955.3,20l-.3-1.1h0c-.4.5-.7.8-1.1.9-.4.2-.8.2-1.4.2s-1.3-.2-1.7-.6c-.4-.4-.6-1-.6-1.7s.3-1.4.9-1.8c.6-.4,1.5-.6,2.7-.6h1.3v-.4c0-.5-.1-.8-.3-1.1-.2-.2-.6-.4-1-.4s-.8,0-1.1.2c-.3.1-.7.2-1,.4l-.5-1.1c.4-.2.9-.4,1.3-.5.5-.1.9-.2,1.4-.2,1,0,1.7.2,2.2.6.5.4.7,1.1.7,2v5.1h-1.1ZM952.9,18.9c.6,0,1-.2,1.4-.5.3-.3.5-.8.5-1.4v-.7h-1c-.8,0-1.3.2-1.7.4-.3.2-.5.6-.5,1s.1.6.3.8c.2.2.5.3.9.3ZM965,20h-1.6v-4.6c0-.6-.1-1-.4-1.3-.2-.3-.6-.4-1.1-.4s-1.2.2-1.5.6c-.3.4-.5,1.1-.5,2v3.8h-1.6v-7.6h1.3l.2,1h0c.2-.4.6-.6,1-.8.4-.2.9-.3,1.4-.3,1.8,0,2.7.9,2.7,2.8v4.9ZM969.8,18.8c.4,0,.8,0,1.2-.2v1.2c-.2,0-.4.1-.7.2-.3,0-.6,0-.9,0-1.5,0-2.3-.8-2.3-2.4v-4.1h-1v-.7l1.1-.6.6-1.6h1v1.7h2.2v1.2h-2.2v4c0,.4,0,.7.3.9.2.2.4.3.8.3ZM978.6,20.1c-1.1,0-2-.3-2.6-1-.6-.7-.9-1.6-.9-2.9s.3-2.2.9-2.9c.6-.7,1.5-1,2.7-1s1.5.1,2.2.4l-.5,1.3c-.7-.3-1.2-.4-1.7-.4-1.3,0-2,.9-2,2.6s.2,1.5.5,1.9c.3.4.8.6,1.4.6s1.4-.2,2-.5v1.4c-.3.2-.6.3-.9.4-.3,0-.7.1-1.2.1ZM988.8,20h-1.6v-4.6c0-.6-.1-1-.3-1.3-.2-.3-.6-.4-1.1-.4s-1.2.2-1.5.6c-.3.4-.5,1.1-.5,2v3.8h-1.6v-10.6h1.6v2.7c0,.4,0,.9,0,1.4h0c.2-.4.5-.6.9-.8.4-.2.9-.3,1.4-.3,1.8,0,2.8.9,2.8,2.8v4.9ZM995.5,20l-.3-1.1h0c-.4.5-.7.8-1.1.9-.4.2-.8.2-1.4.2s-1.3-.2-1.7-.6c-.4-.4-.6-1-.6-1.7s.3-1.4.9-1.8c.6-.4,1.5-.6,2.6-.6h1.3v-.4c0-.5-.1-.8-.3-1.1-.2-.2-.6-.4-1-.4s-.8,0-1.1.2c-.4.1-.7.2-1,.4l-.5-1.1c.4-.2.9-.4,1.3-.5.5-.1.9-.2,1.4-.2,1,0,1.7.2,2.2.6.5.4.7,1.1.7,2v5.1h-1.2ZM993.1,18.9c.6,0,1.1-.2,1.4-.5.4-.3.5-.8.5-1.4v-.7h-1c-.8,0-1.3.2-1.7.4-.3.2-.5.6-.5,1s0,.6.3.8c.2.2.5.3.9.3ZM1005.2,20h-1.6v-4.6c0-.6-.1-1-.4-1.3-.2-.3-.6-.4-1.1-.4s-1.2.2-1.5.6c-.3.4-.5,1.1-.5,2v3.8h-1.6v-7.6h1.3l.2,1h0c.2-.4.6-.6,1-.8.4-.2.9-.3,1.4-.3,1.8,0,2.7.9,2.7,2.8v4.9ZM1013.5,12.4v.9l-1.3.2c.1.2.2.4.3.6,0,.2.1.5.1.7,0,.8-.3,1.4-.8,1.8-.5.4-1.3.7-2.2.7s-.5,0-.7,0c-.3.2-.5.5-.5.8s0,.3.2.4c.2,0,.5.1.9.1h1.3c.8,0,1.5.2,1.9.5.4.4.6.9.6,1.5s-.3,1.5-1.1,2c-.7.5-1.7.7-3.1.7s-1.8-.2-2.4-.5c-.5-.4-.8-.9-.8-1.6s.1-.9.4-1.2c.3-.3.7-.5,1.2-.7-.2,0-.4-.2-.5-.4-.1-.2-.2-.4-.2-.6s0-.5.2-.7c.2-.2.4-.4.7-.6-.4-.2-.7-.4-1-.8-.2-.4-.4-.8-.4-1.3,0-.8.3-1.5.8-1.9.5-.5,1.3-.7,2.2-.7s.4,0,.7,0c.2,0,.4,0,.5,0h2.6ZM1007.6,21.2c0,.3.2.6.5.8.3.2.8.3,1.3.3.9,0,1.5-.1,1.9-.4.4-.3.6-.6.6-1s-.1-.6-.3-.7c-.2-.1-.7-.2-1.3-.2h-1.2c-.5,0-.8.1-1.1.3-.3.2-.4.5-.4.9ZM1008.3,14.9c0,.5.1.8.4,1.1.2.3.6.4,1,.4.9,0,1.4-.5,1.4-1.5s-.1-.9-.3-1.1c-.2-.3-.6-.4-1-.4s-.8.1-1.1.4c-.2.3-.4.6-.4,1.2ZM1017.9,20.1c-1.2,0-2.1-.3-2.8-1-.7-.7-1-1.6-1-2.8s.3-2.2.9-2.9c.6-.7,1.5-1.1,2.5-1.1s1.8.3,2.4.9c.6.6.9,1.4.9,2.5v.9h-5c0,.7.2,1.3.6,1.7.4.4.9.6,1.6.6s.9,0,1.2-.1c.4,0,.8-.2,1.2-.4v1.3c-.4.2-.8.3-1.2.4-.4,0-.9.1-1.4.1ZM1017.7,13.5c-.5,0-.9.2-1.2.5-.3.3-.5.8-.6,1.4h3.4c0-.6-.2-1.1-.5-1.4-.3-.3-.7-.5-1.2-.5ZM1027.5,17.8c0,.7-.3,1.3-.8,1.7-.5.4-1.3.6-2.3.6s-1.8-.2-2.4-.5v-1.4c.9.4,1.7.6,2.5.6s1.5-.3,1.5-.9,0-.4-.2-.5-.3-.3-.5-.4c-.2-.1-.6-.3-1-.5-.9-.3-1.5-.7-1.8-1-.3-.3-.5-.8-.5-1.3s.3-1.1.8-1.5c.5-.4,1.2-.5,2.1-.5s1.7.2,2.5.5l-.5,1.2c-.8-.3-1.5-.5-2-.5-.9,0-1.3.2-1.3.7s0,.4.3.6c.2.2.7.4,1.5.7.6.2,1.1.5,1.4.7.3.2.5.4.6.7.1.3.2.6.2.9ZM1038.6,20h-1.6v-4.7c0-.6,0-1-.3-1.3-.2-.3-.6-.4-1-.4s-1.1.2-1.4.6c-.3.4-.4,1.1-.4,2v3.8h-1.6v-7.6h1.2l.2,1h0c.2-.4.5-.6.9-.8.4-.2.8-.3,1.3-.3,1.2,0,1.9.4,2.3,1.2h.1c.2-.4.5-.7.9-.9.4-.2.9-.3,1.4-.3.9,0,1.6.2,2,.7.4.5.6,1.2.6,2.1v4.9h-1.6v-4.7c0-.6-.1-1-.3-1.3-.2-.3-.6-.4-1-.4s-1.1.2-1.4.6c-.3.4-.4,1-.4,1.8v4ZM1050.1,20l-.3-1.1h0c-.4.5-.7.8-1.1.9-.4.2-.8.2-1.4.2s-1.3-.2-1.7-.6c-.4-.4-.6-1-.6-1.7s.3-1.4.9-1.8c.6-.4,1.5-.6,2.6-.6h1.3v-.4c0-.5-.1-.8-.3-1.1-.2-.2-.6-.4-1.1-.4s-.8,0-1.1.2c-.4.1-.7.2-1,.4l-.5-1.1c.4-.2.9-.4,1.3-.5.5-.1,1-.2,1.4-.2,1,0,1.7.2,2.2.6.5.4.7,1.1.7,2v5.1h-1.2ZM1047.7,18.9c.6,0,1.1-.2,1.4-.5.4-.3.5-.8.5-1.4v-.7h-1c-.8,0-1.3.2-1.7.4-.3.2-.5.6-.5,1s0,.6.3.8c.2.2.5.3.9.3ZM1055.7,20.1c-.9,0-1.7-.3-2.2-1-.5-.7-.8-1.6-.8-2.9s.3-2.2.8-2.9c.5-.7,1.3-1,2.2-1s1.8.4,2.3,1.1h0c0-.5-.1-1-.1-1.3v-2.8h1.6v10.6h-1.3l-.3-1h0c-.5.8-1.3,1.1-2.3,1.1ZM1056.2,18.8c.7,0,1.1-.2,1.4-.6.3-.4.5-1,.5-1.8v-.2c0-1-.2-1.6-.5-2-.3-.4-.8-.6-1.5-.6s-1,.2-1.3.7c-.3.5-.4,1.1-.4,2s.1,1.5.4,1.9c.3.4.7.7,1.3.7ZM1064.9,20.1c-1.2,0-2.1-.3-2.8-1-.7-.7-1-1.6-1-2.8s.3-2.2.9-2.9c.6-.7,1.5-1.1,2.5-1.1s1.8.3,2.4.9c.6.6.9,1.4.9,2.5v.9h-5c0,.7.2,1.3.6,1.7.4.4.9.6,1.6.6s.9,0,1.2-.1c.4,0,.8-.2,1.2-.4v1.3c-.4.2-.8.3-1.2.4s-.9.1-1.4.1ZM1064.6,13.5c-.5,0-.9.2-1.2.5-.3.3-.5.8-.5,1.4h3.4c0-.6-.2-1.1-.4-1.4-.3-.3-.7-.5-1.2-.5Z" class="st10"></path>
  <path d="M876,14c1.7,0,3-1.3,3-3s-1.3-3-3-3-3,1.3-3,3,1.3,3,3,3Z" class="st10"></path>
  <path d="M869,23c0-3.9,3.1-7,7-7s7,3.1,7,7h-14Z" class="st10"></path>
  <path d="M374.2,20v-10h1.6v10h-1.6ZM381.8,13.7h-1.8v6.3h-1.6v-6.3h-1.2v-.8l1.2-.5v-.5c0-.9.2-1.6.6-2,.4-.4,1.1-.6,1.9-.6s1.1,0,1.7.3l-.4,1.2c-.4-.1-.8-.2-1.1-.2s-.6.1-.8.3c-.2.2-.2.6-.2,1v.5h1.8v1.2ZM385,12.4h1.8l1.5,4.3c.2.6.4,1.2.5,1.7h0c0-.3.1-.6.2-.9.1-.4.7-2.1,1.7-5.1h1.7l-3.2,8.6c-.6,1.6-1.6,2.4-2.9,2.4s-.7,0-1-.1v-1.3c.2,0,.5,0,.8,0,.8,0,1.3-.4,1.6-1.3l.3-.7-3-7.6ZM400.1,16.2c0,1.2-.3,2.2-1,2.9-.6.7-1.5,1-2.6,1s-1.3-.2-1.9-.5-1-.8-1.3-1.4c-.3-.6-.4-1.3-.4-2.1,0-1.2.3-2.2.9-2.9.6-.7,1.5-1,2.7-1s2,.4,2.6,1.1c.6.7,1,1.6,1,2.8ZM394.6,16.2c0,1.7.6,2.6,1.9,2.6s1.9-.9,1.9-2.6-.6-2.6-1.9-2.6-1.2.2-1.5.7c-.3.4-.5,1.1-.5,1.9ZM407,20l-.2-1h0c-.2.4-.5.6-1,.8-.4.2-.9.3-1.4.3-.9,0-1.6-.2-2-.7-.5-.5-.7-1.1-.7-2.1v-4.9h1.6v4.7c0,.6.1,1,.4,1.3.2.3.6.4,1.1.4s1.2-.2,1.5-.6c.3-.4.5-1.1.5-2v-3.8h1.6v7.6h-1.3ZM419.8,20l-1-3.5c-.1-.4-.3-1.2-.6-2.6h0c-.3,1.2-.5,2.1-.6,2.6l-1,3.5h-1.8l-2.1-7.6h1.6l1,3.7c.2.9.4,1.7.5,2.4h0c0-.3.1-.7.2-1.1,0-.4.2-.8.2-1l1.1-4h1.8l1.1,4c0,.2.2.6.3,1,.1.5.2.8.2,1.1h0c0-.6.2-1.3.5-2.4l1-3.7h1.6l-2.1,7.6h-1.8ZM429.4,20l-.3-1.1h0c-.4.5-.7.8-1.1.9-.4.2-.8.2-1.4.2s-1.3-.2-1.7-.6c-.4-.4-.6-1-.6-1.7s.3-1.4.9-1.8c.6-.4,1.5-.6,2.6-.6h1.3v-.4c0-.5-.1-.8-.3-1.1-.2-.2-.6-.4-1-.4s-.8,0-1.1.2c-.4.1-.7.2-1,.4l-.5-1.1c.4-.2.9-.4,1.3-.5.5-.1.9-.2,1.4-.2,1,0,1.7.2,2.2.6.5.4.7,1.1.7,2v5.1h-1.1ZM427,18.9c.6,0,1.1-.2,1.4-.5.4-.3.5-.8.5-1.4v-.7h-1c-.8,0-1.3.2-1.7.4-.3.2-.5.6-.5,1s.1.6.3.8c.2.2.5.3.9.3ZM439.2,20h-1.6v-4.6c0-.6-.1-1-.4-1.3-.2-.3-.6-.4-1.1-.4s-1.2.2-1.5.6c-.3.4-.5,1.1-.5,2v3.8h-1.6v-7.6h1.3l.2,1h0c.2-.4.6-.6,1-.8.4-.2.9-.3,1.4-.3,1.8,0,2.7.9,2.7,2.8v4.9ZM443.9,18.8c.4,0,.8,0,1.2-.2v1.2c-.2,0-.4.1-.7.2-.3,0-.6,0-.9,0-1.5,0-2.3-.8-2.3-2.4v-4.1h-1v-.7l1.1-.6.5-1.6h1v1.7h2.2v1.2h-2.2v4c0,.4,0,.7.3.9.2.2.5.3.8.3ZM452.7,20.1c-1.1,0-2-.3-2.6-1-.6-.7-.9-1.6-.9-2.9s.3-2.2.9-2.9c.6-.7,1.5-1,2.7-1s1.5.1,2.2.4l-.5,1.3c-.7-.3-1.2-.4-1.7-.4-1.3,0-2,.9-2,2.6s.2,1.5.5,1.9c.3.4.8.6,1.4.6s1.4-.2,2-.5v1.4c-.3.2-.6.3-.9.4-.3,0-.7.1-1.2.1ZM462.9,20h-1.6v-4.6c0-.6-.1-1-.4-1.3-.2-.3-.6-.4-1.1-.4s-1.2.2-1.5.6c-.3.4-.5,1.1-.5,2v3.8h-1.6v-10.6h1.6v2.7c0,.4,0,.9,0,1.4h.1c.2-.4.5-.6.9-.8.4-.2.8-.3,1.4-.3,1.8,0,2.7.9,2.7,2.8v4.9ZM469.6,20l-.3-1.1h0c-.4.5-.7.8-1.1.9-.4.2-.8.2-1.4.2s-1.3-.2-1.7-.6c-.4-.4-.6-1-.6-1.7s.3-1.4.9-1.8c.6-.4,1.5-.6,2.6-.6h1.3v-.4c0-.5-.1-.8-.3-1.1-.2-.2-.6-.4-1-.4s-.8,0-1.1.2c-.4.1-.7.2-1,.4l-.5-1.1c.4-.2.9-.4,1.3-.5.5-.1.9-.2,1.4-.2,1,0,1.7.2,2.2.6.5.4.7,1.1.7,2v5.1h-1.1ZM467.2,18.9c.6,0,1.1-.2,1.4-.5.4-.3.5-.8.5-1.4v-.7h-1c-.8,0-1.3.2-1.7.4-.3.2-.5.6-.5,1s.1.6.3.8c.2.2.5.3.9.3ZM479.3,20h-1.6v-4.6c0-.6-.1-1-.4-1.3-.2-.3-.6-.4-1.1-.4s-1.2.2-1.5.6c-.3.4-.5,1.1-.5,2v3.8h-1.6v-7.6h1.3l.2,1h0c.2-.4.6-.6,1-.8.4-.2.9-.3,1.4-.3,1.8,0,2.7.9,2.7,2.8v4.9ZM487.7,12.4v.9l-1.3.2c.1.2.2.4.3.6,0,.2.1.5.1.7,0,.8-.3,1.4-.8,1.8-.5.4-1.3.7-2.2.7s-.5,0-.7,0c-.3.2-.5.5-.5.8s0,.3.2.4c.2,0,.5.1.9.1h1.3c.8,0,1.5.2,1.9.5.4.4.6.9.6,1.5s-.4,1.5-1.1,2c-.7.5-1.7.7-3.1.7s-1.8-.2-2.4-.5c-.5-.4-.8-.9-.8-1.6s.1-.9.4-1.2c.3-.3.7-.5,1.2-.7-.2,0-.4-.2-.5-.4-.1-.2-.2-.4-.2-.6s0-.5.2-.7c.2-.2.4-.4.7-.6-.4-.2-.7-.4-1-.8-.2-.4-.4-.8-.4-1.3,0-.8.3-1.5.8-1.9.5-.5,1.3-.7,2.2-.7s.4,0,.7,0c.2,0,.4,0,.5,0h2.6ZM481.7,21.2c0,.3.2.6.5.8.3.2.8.3,1.3.3.9,0,1.5-.1,2-.4.4-.3.6-.6.6-1s-.1-.6-.4-.7c-.2-.1-.7-.2-1.3-.2h-1.2c-.5,0-.8.1-1.1.3-.3.2-.4.5-.4.9ZM482.4,14.9c0,.5.1.8.4,1.1.2.3.6.4,1.1.4.9,0,1.4-.5,1.4-1.5s-.1-.9-.3-1.1c-.2-.3-.6-.4-1-.4s-.8.1-1.1.4c-.2.3-.4.6-.4,1.2ZM492.1,20.1c-1.2,0-2.1-.3-2.8-1-.7-.7-1-1.6-1-2.8s.3-2.2.9-2.9,1.5-1.1,2.5-1.1,1.8.3,2.4.9c.6.6.9,1.4.9,2.5v.9h-5c0,.7.2,1.3.6,1.7.4.4.9.6,1.6.6s.9,0,1.2-.1c.4,0,.8-.2,1.2-.4v1.3c-.4.2-.8.3-1.2.4s-.9.1-1.4.1ZM491.8,13.5c-.5,0-.9.2-1.2.5-.3.3-.5.8-.5,1.4h3.4c0-.6-.2-1.1-.5-1.4-.3-.3-.7-.5-1.2-.5ZM501.6,17.8c0,.7-.3,1.3-.8,1.7-.5.4-1.3.6-2.3.6s-1.8-.2-2.4-.5v-1.4c.9.4,1.7.6,2.5.6s1.5-.3,1.5-.9,0-.4-.2-.5c-.1-.1-.3-.3-.5-.4-.3-.1-.6-.3-1-.5-.9-.3-1.5-.7-1.8-1-.3-.3-.5-.8-.5-1.3s.3-1.1.8-1.5c.5-.4,1.2-.5,2.1-.5s1.7.2,2.5.5l-.5,1.2c-.8-.3-1.5-.5-2.1-.5-.8,0-1.3.2-1.3.7s.1.4.3.6c.2.2.7.4,1.5.7.6.2,1.1.5,1.4.7.3.2.5.4.6.7.1.3.2.6.2.9ZM512.8,20h-1.6v-4.7c0-.6-.1-1-.3-1.3-.2-.3-.6-.4-1-.4s-1.1.2-1.4.6c-.3.4-.4,1.1-.4,2v3.8h-1.6v-7.6h1.3l.2,1h0c.2-.4.5-.6.9-.8.4-.2.8-.3,1.3-.3,1.2,0,1.9.4,2.3,1.2h.1c.2-.4.5-.7.9-.9.4-.2.9-.3,1.4-.3.9,0,1.6.2,2,.7.4.5.6,1.2.6,2.1v4.9h-1.6v-4.7c0-.6-.1-1-.3-1.3-.2-.3-.6-.4-1-.4s-1.1.2-1.4.6c-.3.4-.4,1-.4,1.8v4ZM524.2,20l-.3-1.1h0c-.4.5-.7.8-1.1.9-.4.2-.8.2-1.4.2s-1.3-.2-1.7-.6c-.4-.4-.6-1-.6-1.7s.3-1.4.9-1.8c.6-.4,1.5-.6,2.6-.6h1.3v-.4c0-.5-.1-.8-.3-1.1-.2-.2-.6-.4-1-.4s-.8,0-1.1.2c-.4.1-.7.2-1,.4l-.5-1.1c.4-.2.9-.4,1.3-.5.5-.1.9-.2,1.4-.2,1,0,1.7.2,2.2.6.5.4.7,1.1.7,2v5.1h-1.1ZM521.8,18.9c.6,0,1.1-.2,1.4-.5.4-.3.5-.8.5-1.4v-.7h-1c-.8,0-1.3.2-1.7.4-.3.2-.5.6-.5,1s.1.6.3.8c.2.2.5.3.9.3ZM529.9,20.1c-.9,0-1.7-.3-2.2-1-.5-.7-.8-1.6-.8-2.9s.3-2.2.8-2.9c.5-.7,1.3-1,2.2-1s1.8.4,2.3,1.1h0c0-.5-.1-1-.1-1.3v-2.8h1.6v10.6h-1.3l-.3-1h0c-.5.8-1.3,1.1-2.3,1.1ZM530.3,18.8c.7,0,1.1-.2,1.4-.6.3-.4.5-1,.5-1.8v-.2c0-1-.2-1.6-.5-2-.3-.4-.8-.6-1.5-.6s-1,.2-1.3.7c-.3.5-.5,1.1-.5,2s.1,1.5.4,1.9c.3.4.7.7,1.3.7ZM539,20.1c-1.2,0-2.1-.3-2.8-1-.7-.7-1-1.6-1-2.8s.3-2.2.9-2.9,1.5-1.1,2.5-1.1,1.8.3,2.4.9c.6.6.9,1.4.9,2.5v.9h-5c0,.7.2,1.3.6,1.7.4.4.9.6,1.6.6s.9,0,1.2-.1c.4,0,.8-.2,1.2-.4v1.3c-.4.2-.8.3-1.2.4s-.9.1-1.4.1ZM538.7,13.5c-.5,0-.9.2-1.2.5-.3.3-.5.8-.5,1.4h3.4c0-.6-.2-1.1-.5-1.4-.3-.3-.7-.5-1.2-.5ZM549.6,18.8c.4,0,.8,0,1.2-.2v1.2c-.2,0-.4.1-.7.2-.3,0-.6,0-.9,0-1.5,0-2.3-.8-2.3-2.4v-4.1h-1v-.7l1.1-.6.5-1.6h1v1.7h2.2v1.2h-2.2v4c0,.4,0,.7.3.9.2.2.5.3.8.3ZM558.7,16.2c0,1.2-.3,2.2-.9,2.9-.6.7-1.5,1-2.6,1s-1.3-.2-1.9-.5c-.5-.3-1-.8-1.3-1.4-.3-.6-.4-1.3-.4-2.1,0-1.2.3-2.2.9-2.9.6-.7,1.5-1,2.7-1s2,.4,2.6,1.1c.6.7,1,1.6,1,2.8ZM553.2,16.2c0,1.7.6,2.6,1.9,2.6s1.9-.9,1.9-2.6-.6-2.6-1.9-2.6-1.2.2-1.5.7c-.3.4-.5,1.1-.5,1.9ZM566.4,18.8c.4,0,.8,0,1.2-.2v1.2c-.2,0-.4.1-.7.2-.3,0-.6,0-.9,0-1.5,0-2.3-.8-2.3-2.4v-4.1h-1v-.7l1.1-.6.5-1.6h1v1.7h2.2v1.2h-2.2v4c0,.4,0,.7.3.9.2.2.5.3.8.3ZM575.5,20h-1.6v-4.6c0-.6-.1-1-.4-1.3-.2-.3-.6-.4-1.1-.4s-1.2.2-1.5.6c-.3.4-.5,1.1-.5,2v3.8h-1.6v-10.6h1.6v2.7c0,.4,0,.9,0,1.4h.1c.2-.4.5-.6.9-.8.4-.2.8-.3,1.4-.3,1.8,0,2.7.9,2.7,2.8v4.9ZM580.7,20.1c-1.2,0-2.1-.3-2.8-1-.7-.7-1-1.6-1-2.8s.3-2.2.9-2.9c.6-.7,1.5-1.1,2.5-1.1s1.8.3,2.4.9.9,1.4.9,2.5v.9h-5c0,.7.2,1.3.6,1.7.4.4.9.6,1.6.6s.9,0,1.2-.1c.4,0,.8-.2,1.2-.4v1.3c-.4.2-.8.3-1.2.4s-.9.1-1.4.1ZM580.4,13.5c-.5,0-.9.2-1.2.5-.3.3-.5.8-.5,1.4h3.4c0-.6-.2-1.1-.5-1.4-.3-.3-.7-.5-1.2-.5ZM591.1,20.1c-.9,0-1.7-.3-2.2-1-.5-.7-.8-1.6-.8-2.9s.3-2.2.8-2.9c.5-.7,1.3-1,2.2-1s1.8.4,2.3,1.1h0c0-.5-.1-1-.1-1.3v-2.8h1.6v10.6h-1.3l-.3-1h0c-.5.8-1.3,1.1-2.3,1.1ZM591.5,18.8c.7,0,1.1-.2,1.4-.6.3-.4.5-1,.5-1.8v-.2c0-1-.2-1.6-.5-2s-.8-.6-1.5-.6-1,.2-1.3.7c-.3.5-.5,1.1-.5,2s.1,1.5.4,1.9c.3.4.7.7,1.3.7ZM600.3,20.1c-1.2,0-2.1-.3-2.8-1-.7-.7-1-1.6-1-2.8s.3-2.2.9-2.9c.6-.7,1.5-1.1,2.5-1.1s1.8.3,2.4.9.9,1.4.9,2.5v.9h-5c0,.7.2,1.3.6,1.7.4.4.9.6,1.6.6s.9,0,1.2-.1c.4,0,.8-.2,1.2-.4v1.3c-.4.2-.8.3-1.2.4-.4,0-.9.1-1.4.1ZM600,13.5c-.5,0-.9.2-1.2.5-.3.3-.5.8-.5,1.4h3.4c0-.6-.2-1.1-.5-1.4-.3-.3-.7-.5-1.2-.5ZM609.8,17.8c0,.7-.3,1.3-.8,1.7-.5.4-1.3.6-2.3.6s-1.8-.2-2.4-.5v-1.4c.9.4,1.7.6,2.5.6s1.5-.3,1.5-.9,0-.4-.2-.5-.3-.3-.5-.4c-.3-.1-.6-.3-1-.5-.9-.3-1.5-.7-1.8-1-.3-.3-.5-.8-.5-1.3s.3-1.1.8-1.5c.5-.4,1.2-.5,2.1-.5s1.7.2,2.5.5l-.5,1.2c-.8-.3-1.5-.5-2.1-.5-.8,0-1.3.2-1.3.7s.1.4.3.6c.2.2.7.4,1.4.7.6.2,1.1.5,1.4.7.3.2.5.4.6.7.1.3.2.6.2.9ZM612.8,20h-1.6v-7.6h1.6v7.6ZM611.1,10.4c0-.3,0-.5.2-.7.2-.2.4-.2.7-.2s.5,0,.7.2c.2.2.2.4.2.7s0,.5-.2.6c-.2.2-.4.2-.7.2s-.5,0-.7-.2c-.2-.2-.2-.4-.2-.6ZM621.2,12.4v.9l-1.3.2c.1.2.2.4.3.6,0,.2.1.5.1.7,0,.8-.3,1.4-.8,1.8-.5.4-1.3.7-2.2.7s-.5,0-.7,0c-.3.2-.5.5-.5.8s0,.3.2.4c.2,0,.5.1.9.1h1.3c.8,0,1.5.2,1.9.5.4.4.6.9.6,1.5s-.4,1.5-1.1,2c-.7.5-1.7.7-3.1.7s-1.8-.2-2.4-.5c-.5-.4-.8-.9-.8-1.6s.1-.9.4-1.2c.3-.3.7-.5,1.2-.7-.2,0-.4-.2-.5-.4-.1-.2-.2-.4-.2-.6s0-.5.2-.7c.2-.2.4-.4.7-.6-.4-.2-.7-.4-1-.8-.2-.4-.4-.8-.4-1.3,0-.8.3-1.5.8-1.9.5-.5,1.3-.7,2.2-.7s.4,0,.7,0c.2,0,.4,0,.5,0h2.6ZM615.3,21.2c0,.3.2.6.5.8.3.2.8.3,1.3.3.9,0,1.5-.1,2-.4.4-.3.6-.6.6-1s-.1-.6-.4-.7c-.2-.1-.7-.2-1.3-.2h-1.2c-.5,0-.8.1-1.1.3-.3.2-.4.5-.4.9ZM616,14.9c0,.5.1.8.4,1.1.2.3.6.4,1.1.4.9,0,1.4-.5,1.4-1.5s-.1-.9-.3-1.1c-.2-.3-.6-.4-1-.4s-.8.1-1.1.4c-.2.3-.4.6-.4,1.2ZM629,20h-1.6v-4.6c0-.6-.1-1-.4-1.3-.2-.3-.6-.4-1.1-.4s-1.2.2-1.5.6c-.3.4-.5,1.1-.5,2v3.8h-1.6v-7.6h1.3l.2,1h0c.2-.4.6-.6,1-.8.4-.2.9-.3,1.4-.3,1.8,0,2.7.9,2.7,2.8v4.9Z" class="st10"></path>
  <path d="M429.4,192v-10h1.6v10h-1.6ZM437,185.7h-1.8v6.3h-1.6v-6.3h-1.2v-.8l1.2-.5v-.5c0-.9.2-1.6.6-2,.4-.4,1.1-.7,1.9-.7s1.1,0,1.7.3l-.4,1.2c-.4-.1-.8-.2-1.1-.2s-.6.1-.8.3c-.2.2-.2.6-.2,1v.5h1.8v1.2ZM446,192l-.3-1.1h0c-.4.5-.7.8-1.1.9-.4.2-.8.2-1.4.2s-1.3-.2-1.7-.6c-.4-.4-.6-1-.6-1.7s.3-1.4.9-1.8c.6-.4,1.5-.6,2.6-.6h1.3v-.4c0-.5-.1-.8-.3-1.1-.2-.2-.6-.4-1-.4s-.8,0-1.1.2c-.4.1-.7.2-1,.4l-.5-1.1c.4-.2.9-.4,1.3-.5.5-.1.9-.2,1.4-.2,1,0,1.7.2,2.2.6.5.4.7,1.1.7,2v5.1h-1.1ZM443.6,190.9c.6,0,1.1-.2,1.4-.5.4-.3.5-.8.5-1.4v-.7h-1c-.8,0-1.3.2-1.7.4-.3.2-.5.6-.5,1s.1.6.3.8c.2.2.5.3.9.3ZM455,192.1c-.9,0-1.7-.3-2.2-1-.5-.7-.8-1.6-.8-2.9s.3-2.2.8-2.9c.5-.7,1.3-1,2.2-1s1.8.4,2.3,1.1h0c0-.5-.1-1-.1-1.3v-2.8h1.6v10.6h-1.3l-.3-1h0c-.5.8-1.3,1.1-2.3,1.1ZM455.4,190.8c.7,0,1.1-.2,1.4-.6.3-.4.5-1,.5-1.8v-.2c0-1-.2-1.6-.5-2s-.8-.6-1.5-.6-1,.2-1.3.7c-.3.5-.5,1.1-.5,2s.1,1.5.4,1.9c.3.4.7.7,1.3.7ZM464.2,192.1c-1.2,0-2.1-.3-2.8-1-.7-.7-1-1.6-1-2.8s.3-2.2.9-2.9c.6-.7,1.5-1.1,2.5-1.1s1.8.3,2.4.9c.6.6.9,1.4.9,2.5v.9h-5c0,.7.2,1.3.6,1.7.4.4.9.6,1.6.6s.9,0,1.2-.1c.4,0,.8-.2,1.2-.4v1.3c-.4.2-.8.3-1.2.4-.4,0-.9.1-1.4.1ZM463.9,185.5c-.5,0-.9.2-1.2.5-.3.3-.5.8-.5,1.4h3.4c0-.6-.2-1.1-.5-1.4-.3-.3-.7-.5-1.2-.5ZM473.7,189.8c0,.7-.3,1.3-.8,1.7-.5.4-1.3.6-2.3.6s-1.8-.2-2.4-.5v-1.4c.9.4,1.7.6,2.5.6s1.5-.3,1.5-.9,0-.4-.2-.5c-.1-.1-.3-.3-.5-.4-.2-.1-.6-.3-1-.5-.9-.3-1.5-.7-1.8-1-.3-.3-.5-.8-.5-1.3s.3-1.1.8-1.5c.5-.4,1.2-.5,2.1-.5s1.7.2,2.5.5l-.5,1.2c-.8-.3-1.5-.5-2.1-.5-.8,0-1.3.2-1.3.7s.1.4.3.6c.2.2.7.4,1.4.7.6.2,1.1.5,1.4.7.3.2.5.4.6.7.1.3.2.6.2.9ZM476.8,192h-1.6v-7.6h1.6v7.6ZM475.1,182.4c0-.3,0-.5.2-.7.2-.2.4-.2.7-.2s.5,0,.7.2c.2.2.2.4.2.7s0,.5-.2.6c-.2.2-.4.2-.7.2s-.5,0-.7-.2c-.2-.2-.2-.4-.2-.6ZM485.2,184.4v.9l-1.3.2c.1.2.2.4.3.6,0,.2.1.5.1.7,0,.8-.3,1.4-.8,1.8-.5.4-1.3.7-2.2.7s-.5,0-.7,0c-.3.2-.5.5-.5.8s0,.3.2.4c.2,0,.5.1.9.1h1.3c.8,0,1.5.2,1.9.5.4.4.7.9.7,1.5s-.4,1.5-1.1,2-1.7.7-3.1.7-1.8-.2-2.4-.5c-.5-.4-.8-.9-.8-1.6s.1-.9.4-1.2c.3-.3.7-.5,1.2-.7-.2,0-.4-.2-.5-.4-.1-.2-.2-.4-.2-.6s0-.5.2-.7c.2-.2.4-.4.7-.6-.4-.2-.7-.4-1-.8-.2-.4-.4-.8-.4-1.3,0-.8.3-1.5.8-1.9.5-.5,1.3-.7,2.2-.7s.4,0,.7,0c.2,0,.4,0,.5,0h2.6ZM479.2,193.2c0,.3.2.6.5.8.3.2.8.3,1.3.3.9,0,1.5-.1,2-.4.4-.3.6-.6.6-1s-.1-.6-.4-.7c-.2-.1-.7-.2-1.3-.2h-1.2c-.5,0-.8.1-1.1.3-.3.2-.4.5-.4.9ZM479.9,186.9c0,.5.1.8.4,1.1.2.3.6.4,1.1.4.9,0,1.4-.5,1.4-1.5s-.1-.9-.3-1.1c-.2-.3-.6-.4-1-.4s-.8.1-1.1.4c-.2.3-.4.6-.4,1.2ZM492.9,192h-1.6v-4.6c0-.6-.1-1-.4-1.3-.2-.3-.6-.4-1.1-.4s-1.2.2-1.5.6c-.3.4-.5,1.1-.5,2v3.8h-1.6v-7.6h1.3l.2,1h0c.2-.4.6-.6,1-.8.4-.2.9-.3,1.4-.3,1.8,0,2.7.9,2.7,2.8v4.9ZM499.8,192h-1.6v-7.6h1.6v7.6ZM498.1,182.4c0-.3,0-.5.2-.7.2-.2.4-.2.7-.2s.5,0,.7.2c.2.2.2.4.2.7s0,.5-.2.6c-.2.2-.4.2-.7.2s-.5,0-.7-.2c-.2-.2-.2-.4-.2-.6ZM506.9,189.8c0,.7-.3,1.3-.8,1.7-.5.4-1.3.6-2.3.6s-1.8-.2-2.4-.5v-1.4c.9.4,1.7.6,2.5.6s1.5-.3,1.5-.9,0-.4-.2-.5c-.1-.1-.3-.3-.5-.4-.2-.1-.6-.3-1-.5-.9-.3-1.5-.7-1.8-1-.3-.3-.5-.8-.5-1.3s.3-1.1.8-1.5c.5-.4,1.2-.5,2.1-.5s1.7.2,2.5.5l-.5,1.2c-.8-.3-1.5-.5-2.1-.5-.8,0-1.3.2-1.3.7s.1.4.3.6c.2.2.7.4,1.4.7.6.2,1.1.5,1.4.7.3.2.5.4.6.7.1.3.2.6.2.9ZM518.3,192h-1.6v-4.6c0-.6-.1-1-.4-1.3-.2-.3-.6-.4-1.1-.4s-1.2.2-1.5.6c-.3.4-.5,1.1-.5,2v3.8h-1.6v-7.6h1.3l.2,1h0c.2-.4.6-.6,1-.8.4-.2.9-.3,1.4-.3,1.8,0,2.7.9,2.7,2.8v4.9ZM527,188.2c0,1.2-.3,2.2-1,2.9-.6.7-1.5,1-2.6,1s-1.3-.2-1.9-.5c-.5-.3-1-.8-1.3-1.4-.3-.6-.4-1.3-.4-2.1,0-1.2.3-2.2.9-2.9.6-.7,1.5-1,2.7-1s2,.4,2.6,1.1c.6.7,1,1.6,1,2.8ZM521.5,188.2c0,1.7.6,2.6,1.9,2.6s1.9-.9,1.9-2.6-.6-2.6-1.9-2.6-1.2.2-1.5.7c-.3.4-.5,1.1-.5,1.9ZM531.3,190.8c.4,0,.8,0,1.2-.2v1.2c-.2,0-.4.1-.7.2-.3,0-.6,0-.9,0-1.5,0-2.3-.8-2.3-2.4v-4.1h-1v-.7l1.1-.6.5-1.6h1v1.7h2.2v1.2h-2.2v4c0,.4,0,.7.3.9.2.2.5.3.8.3ZM543.7,192h-1.6v-4.6c0-.6-.1-1-.4-1.3-.2-.3-.6-.4-1.1-.4s-1.2.2-1.5.6c-.3.4-.5,1.1-.5,2v3.8h-1.6v-7.6h1.3l.2,1h0c.2-.4.6-.6,1-.8.4-.2.9-.3,1.4-.3,1.8,0,2.7.9,2.7,2.8v4.9ZM549,192.1c-1.2,0-2.1-.3-2.8-1-.7-.7-1-1.6-1-2.8s.3-2.2.9-2.9c.6-.7,1.5-1.1,2.5-1.1s1.8.3,2.4.9c.6.6.9,1.4.9,2.5v.9h-5c0,.7.2,1.3.6,1.7.4.4.9.6,1.6.6s.9,0,1.2-.1c.4,0,.8-.2,1.2-.4v1.3c-.4.2-.8.3-1.2.4-.4,0-.9.1-1.4.1ZM548.7,185.5c-.5,0-.9.2-1.2.5-.3.3-.5.8-.5,1.4h3.4c0-.6-.2-1.1-.5-1.4-.3-.3-.7-.5-1.2-.5ZM556.7,192.1c-1.2,0-2.1-.3-2.8-1-.7-.7-1-1.6-1-2.8s.3-2.2.9-2.9c.6-.7,1.5-1.1,2.5-1.1s1.8.3,2.4.9c.6.6.9,1.4.9,2.5v.9h-5c0,.7.2,1.3.6,1.7.4.4.9.6,1.6.6s.9,0,1.2-.1c.4,0,.8-.2,1.2-.4v1.3c-.4.2-.8.3-1.2.4-.4,0-.9.1-1.4.1ZM556.4,185.5c-.5,0-.9.2-1.2.5-.3.3-.5.8-.5,1.4h3.4c0-.6-.2-1.1-.5-1.4-.3-.3-.7-.5-1.2-.5ZM563.7,192.1c-.9,0-1.7-.3-2.2-1-.5-.7-.8-1.6-.8-2.9s.3-2.2.8-2.9c.5-.7,1.3-1,2.2-1s1.8.4,2.3,1.1h0c0-.5-.1-1-.1-1.3v-2.8h1.6v10.6h-1.3l-.3-1h0c-.5.8-1.3,1.1-2.3,1.1ZM564.2,190.8c.7,0,1.1-.2,1.4-.6.3-.4.5-1,.5-1.8v-.2c0-1-.2-1.6-.5-2-.3-.4-.8-.6-1.5-.6s-1,.2-1.3.7c-.3.5-.5,1.1-.5,2s.1,1.5.4,1.9c.3.4.7.7,1.3.7ZM572.9,192.1c-1.2,0-2.1-.3-2.8-1-.7-.7-1-1.6-1-2.8s.3-2.2.9-2.9c.6-.7,1.5-1.1,2.5-1.1s1.8.3,2.4.9c.6.6.9,1.4.9,2.5v.9h-5c0,.7.2,1.3.6,1.7.4.4.9.6,1.6.6s.9,0,1.2-.1c.4,0,.8-.2,1.2-.4v1.3c-.4.2-.8.3-1.2.4-.4,0-.9.1-1.4.1ZM572.6,185.5c-.5,0-.9.2-1.2.5-.3.3-.5.8-.5,1.4h3.4c0-.6-.2-1.1-.5-1.4-.3-.3-.7-.5-1.2-.5ZM579.9,192.1c-.9,0-1.7-.3-2.2-1-.5-.7-.8-1.6-.8-2.9s.3-2.2.8-2.9c.5-.7,1.3-1,2.2-1s1.8.4,2.3,1.1h0c0-.5-.1-1-.1-1.3v-2.8h1.6v10.6h-1.3l-.3-1h0c-.5.8-1.3,1.1-2.3,1.1ZM580.4,190.8c.7,0,1.1-.2,1.4-.6.3-.4.5-1,.5-1.8v-.2c0-1-.2-1.6-.5-2s-.8-.6-1.5-.6-1,.2-1.3.7c-.3.5-.5,1.1-.5,2s.1,1.5.4,1.9c.3.4.7.7,1.3.7Z" class="st10"></path>
  <path d="M350,14c1.7,0,3-1.3,3-3s-1.3-3-3-3-3,1.3-3,3,1.3,3,3,3Z" class="st10"></path>
  <path d="M343,23c0-3.9,3.1-7,7-7s7,3.1,7,7h-14Z" class="st10"></path>
</svg>